# Blender v2.79 (sub 0) OBJ File: 'handle.blend'
# www.blender.org
mtllib handle.mtl
o Cube
v -0.000000 -0.000000 1.000000
v -0.000000 -0.000000 -1.000000
v 0.000000 -0.439735 0.000000
v -0.439735 0.000000 -0.000000
v 0.439735 -0.000000 0.000000
v -0.000000 0.439735 -0.000000
vn -0.6752 -0.6752 0.2969
vn 0.6752 0.6752 0.2969
vn 0.6752 -0.6752 0.2969
vn -0.6752 0.6752 -0.2969
vn -0.6752 0.6752 0.2969
vn 0.6752 -0.6752 -0.2969
vn 0.6752 0.6752 -0.2969
vn -0.6752 -0.6752 -0.2969
usemtl Material
s off
f 3//1 1//1 4//1
f 5//2 6//2 1//2
f 3//3 5//3 1//3
f 4//4 6//4 2//4
f 1//5 6//5 4//5
f 2//6 5//6 3//6
f 2//7 6//7 5//7
f 2//8 3//8 4//8
